<svg width="49" height="49" viewBox="0 0 49 49" fill="none" xmlns="http://www.w3.org/2000/svg">
<path d="M44.22 25.46L38.8 16.5C38.451 15.8954 37.9498 15.3928 37.3463 15.0419C36.7429 14.691 36.0581 14.5042 35.36 14.5H30.5V10.5C30.5 9.96957 30.2893 9.46086 29.9142 9.08579C29.5391 8.71071 29.0304 8.5 28.5 8.5H8.5C7.43913 8.5 6.42172 8.92143 5.67157 9.67157C4.92143 10.4217 4.5 11.4391 4.5 12.5V32.5C4.50072 33.2015 4.68589 33.8904 5.03692 34.4977C5.38796 35.105 5.89252 35.6093 6.5 35.96C6.42839 37.8165 7.09721 39.6254 8.35933 40.9888C9.62145 42.3522 11.3735 43.1584 13.23 43.23C15.0865 43.3016 16.8954 42.6328 18.2588 41.3707C19.6222 40.1085 20.4284 38.3565 20.5 36.5H26.7C26.9212 38.1734 27.7429 39.7094 29.0123 40.822C30.2816 41.9347 31.912 42.5481 33.6 42.5481C35.288 42.5481 36.9184 41.9347 38.1877 40.822C39.4571 39.7094 40.2788 38.1734 40.5 36.5C41.5609 36.5 42.5783 36.0786 43.3284 35.3284C44.0786 34.5783 44.5 33.5609 44.5 32.5V26.5C44.4943 26.1355 44.3981 25.7781 44.22 25.46ZM13.5 38.5C12.9067 38.5 12.3266 38.3241 11.8333 37.9944C11.3399 37.6648 10.9554 37.1962 10.7284 36.648C10.5013 36.0999 10.4419 35.4967 10.5576 34.9147C10.6734 34.3328 10.9591 33.7982 11.3787 33.3787C11.7982 32.9591 12.3328 32.6734 12.9147 32.5576C13.4967 32.4419 14.0999 32.5013 14.6481 32.7284C15.1962 32.9554 15.6648 33.3399 15.9944 33.8333C16.3241 34.3266 16.5 34.9067 16.5 35.5C16.5 36.2956 16.1839 37.0587 15.6213 37.6213C15.0587 38.1839 14.2956 38.5 13.5 38.5ZM24.5 22.5H20.5V26.5H16.5V22.5H12.5V18.5H16.5V14.5H20.5V18.5H24.5V22.5ZM33.5 38.5C32.9067 38.5 32.3266 38.3241 31.8333 37.9944C31.3399 37.6648 30.9554 37.1962 30.7284 36.648C30.5013 36.0999 30.4419 35.4967 30.5576 34.9147C30.6734 34.3328 30.9591 33.7982 31.3787 33.3787C31.7982 32.9591 32.3328 32.6734 32.9147 32.5576C33.4967 32.4419 34.0999 32.5013 34.648 32.7284C35.1962 32.9554 35.6648 33.3399 35.9944 33.8333C36.3241 34.3266 36.5 34.9067 36.5 35.5C36.5 36.2956 36.1839 37.0587 35.6213 37.6213C35.0587 38.1839 34.2956 38.5 33.5 38.5ZM30.5 24.5V18.5H35.36L38.96 24.5H30.5Z" fill="#C75000"/>
</svg>
