<svg width="20" height="20" viewBox="0 0 20 20" fill="none" xmlns="http://www.w3.org/2000/svg">
<path d="M18.2167 10.4L15.9584 6.66667C15.813 6.41477 15.6042 6.20532 15.3527 6.05912C15.1013 5.91293 14.8159 5.83509 14.5251 5.83333H12.5001V4.16667C12.5001 3.94565 12.4123 3.73369 12.256 3.57741C12.0997 3.42113 11.8878 3.33333 11.6667 3.33333H3.33341C2.89139 3.33333 2.46746 3.50893 2.1549 3.82149C1.84234 4.13405 1.66675 4.55797 1.66675 5V13.3333C1.66705 13.6256 1.7442 13.9127 1.89047 14.1657C2.03673 14.4187 2.24697 14.6289 2.50008 14.775C2.47024 15.5485 2.74892 16.3023 3.2748 16.8703C3.80069 17.4384 4.5307 17.7743 5.30425 17.8042C6.0778 17.834 6.83151 17.5553 7.39959 17.0294C7.96767 16.5036 8.30358 15.7735 8.33341 15H10.9167C11.0089 15.6973 11.3513 16.3373 11.8802 16.8008C12.4091 17.2644 13.0884 17.52 13.7917 17.52C14.4951 17.52 15.1744 17.2644 15.7033 16.8008C16.2322 16.3373 16.5746 15.6973 16.6667 15C17.1088 15 17.5327 14.8244 17.8453 14.5118C18.1578 14.1993 18.3334 13.7754 18.3334 13.3333V10.8333C18.331 10.6815 18.2909 10.5325 18.2167 10.4ZM5.41675 15.8333C5.16952 15.8333 4.92785 15.76 4.72229 15.6227C4.51672 15.4853 4.35651 15.2901 4.2619 15.0617C4.16729 14.8333 4.14253 14.5819 4.19077 14.3395C4.239 14.097 4.35805 13.8743 4.53286 13.6995C4.70768 13.5246 4.93041 13.4056 5.17289 13.3574C5.41536 13.3091 5.66669 13.3339 5.8951 13.4285C6.12351 13.5231 6.31873 13.6833 6.45608 13.8889C6.59344 14.0944 6.66675 14.3361 6.66675 14.5833C6.66675 14.9149 6.53505 15.2328 6.30063 15.4672C6.06621 15.7016 5.74827 15.8333 5.41675 15.8333ZM10.0001 9.16667H8.33341V10.8333H6.66675V9.16667H5.00008V7.5H6.66675V5.83333H8.33341V7.5H10.0001V9.16667ZM13.7501 15.8333C13.5029 15.8333 13.2612 15.76 13.0556 15.6227C12.8501 15.4853 12.6898 15.2901 12.5952 15.0617C12.5006 14.8333 12.4759 14.5819 12.5241 14.3395C12.5723 14.097 12.6914 13.8743 12.8662 13.6995C13.041 13.5246 13.2637 13.4056 13.5062 13.3574C13.7487 13.3091 14 13.3339 14.2284 13.4285C14.4568 13.5231 14.6521 13.6833 14.7894 13.8889C14.9268 14.0944 15.0001 14.3361 15.0001 14.5833C15.0001 14.9149 14.8684 15.2328 14.634 15.4672C14.3995 15.7016 14.0816 15.8333 13.7501 15.8333ZM12.5001 10V7.5H14.5251L16.0251 10H12.5001Z" fill="white"/>
</svg>
