<svg width="32" height="32" viewBox="0 0 32 32" fill="none" xmlns="http://www.w3.org/2000/svg">
<path d="M16.0002 12C18.5775 12 20.6668 9.91068 20.6668 7.33335C20.6668 4.75602 18.5775 2.66669 16.0002 2.66669C13.4228 2.66669 11.3335 4.75602 11.3335 7.33335C11.3335 9.91068 13.4228 12 16.0002 12Z" stroke="white" stroke-width="2.66667" stroke-linecap="round" stroke-linejoin="round"/>
<path d="M2.66675 27.3334C2.66675 21.442 8.03941 16.6667 14.6667 16.6667" stroke="white" stroke-width="2.66667" stroke-linecap="round" stroke-linejoin="round"/>
<path d="M22.6667 28.6667C25.9805 28.6667 28.6667 25.9804 28.6667 22.6667C28.6667 19.353 25.9805 16.6667 22.6667 16.6667C19.353 16.6667 16.6667 19.353 16.6667 22.6667C16.6667 25.9804 19.353 28.6667 22.6667 28.6667Z" stroke="white" stroke-width="2.66667"/>
<path d="M22 20.6667V23.3334H24.6667" stroke="white" stroke-width="2.66667" stroke-linecap="round" stroke-linejoin="round"/>
</svg>
