<svg width="25" height="24" viewBox="0 0 25 24" fill="none" xmlns="http://www.w3.org/2000/svg">
<path d="M11.0756 8.43373C10.975 8.43728 10.8747 8.42053 10.7806 8.38446C10.6866 8.34839 10.6008 8.29375 10.5283 8.2238C10.4558 8.15385 10.3982 8.07002 10.3588 7.97731C10.3195 7.8846 10.2992 7.78492 10.2992 7.6842C10.2992 7.58348 10.3195 7.48379 10.3588 7.39108C10.3982 7.29838 10.4558 7.21455 10.5283 7.1446C10.6008 7.07464 10.6866 7.02 10.7806 6.98394C10.8747 6.94787 10.975 6.93111 11.0756 6.93466L16.7325 6.93466C16.9313 6.93479 17.1218 7.0138 17.2624 7.15433C17.4029 7.29487 17.4819 7.48545 17.482 7.6842L17.482 13.3411C17.4856 13.4417 17.4688 13.542 17.4328 13.6361C17.3967 13.7301 17.3421 13.8159 17.2721 13.8884C17.2022 13.9609 17.1183 14.0185 17.0256 14.0579C16.9329 14.0972 16.8332 14.1175 16.7325 14.1175C16.6318 14.1175 16.5321 14.0972 16.4394 14.0579C16.3467 14.0185 16.2629 13.9609 16.1929 13.8884C16.1229 13.8159 16.0683 13.7301 16.0322 13.6361C15.9962 13.542 15.9794 13.4417 15.983 13.3411L15.983 9.49439L9.13111 16.3463C8.99045 16.4869 8.79969 16.5659 8.60077 16.5659C8.40186 16.5659 8.2111 16.4869 8.07045 16.3463C7.92979 16.2056 7.85077 16.0148 7.85078 15.8159C7.85078 15.617 7.92979 15.4262 8.07045 15.2856L14.9223 8.43373L11.0756 8.43373Z" fill="white"/>
</svg>
