<svg width="49" height="48" viewBox="0 0 49 48" fill="none" xmlns="http://www.w3.org/2000/svg">
<path d="M22.933 5.10045C22.5481 5.1012 22.1632 5.11001 21.7787 5.12688C20.9523 5.27379 20.5708 5.63557 20.3636 6.04967C20.1353 6.50623 20.1442 7.12057 20.3987 7.66685C20.6535 8.21342 21.1206 8.66023 21.7728 8.8271C22.4252 8.99398 23.3231 8.90773 24.5033 8.15332L25.4467 9.62988C23.9638 10.5777 22.5288 10.8277 21.3392 10.5233C20.1497 10.2189 19.2671 9.38679 18.811 8.40804C18.3812 7.48592 18.3023 6.40404 18.7144 5.44329C14.691 6.09392 11.0478 7.63685 8.2495 9.80848C7.32981 10.8105 7.23981 11.975 7.64294 12.7704C8.09575 13.6635 9.16262 14.3154 11.2964 13.6404L11.8266 15.3104C9.14725 16.1579 6.93878 15.2553 6.08162 13.5643C5.87256 13.1521 5.74487 12.7059 5.69472 12.2459C5.2434 12.7814 4.83597 13.3388 4.47597 13.9188L4.48778 13.9244C3.68022 15.7634 3.66184 17.0372 3.98378 17.8649C4.3059 18.6927 4.98081 19.2186 6.02003 19.5085C8.09828 20.0879 11.4636 19.3888 13.8334 17.6189C14.8478 16.8614 15.8094 15.0242 15.8931 13.5994C15.9348 12.8869 15.7839 12.324 15.4858 11.9645C15.1877 11.6051 14.7103 11.3361 13.7221 11.3464L13.7045 9.59454C15.0627 9.58048 16.1655 10.0402 16.8334 10.8455C17.5013 11.6509 17.7016 12.6879 17.642 13.7019C17.523 15.73 16.4612 17.843 14.8822 19.0222C12.0813 21.1142 8.38197 21.9853 5.55128 21.1961C4.2399 20.8305 3.07909 20.0349 2.48097 18.8027C1.58603 23.0632 2.88625 27.0208 5.36078 29.7596C5.68422 30.1177 6.02847 30.4562 6.38922 30.7702C6.13103 30.0308 6.01272 29.2609 6.04047 28.5115C6.09015 27.1685 6.61065 25.8541 7.65484 24.9462C8.51115 24.2013 9.69409 23.7715 11.1089 23.7743C11.2032 23.7743 11.2996 23.776 11.3959 23.7799C11.6162 23.7893 11.8425 23.8084 12.0728 23.8386L11.8441 25.576C10.3827 25.384 9.43422 25.7187 8.80319 26.2674C8.17225 26.8162 7.82415 27.6375 7.78947 28.576C7.72009 30.4533 8.92103 32.6453 11.5104 33.2811L11.5074 33.2988C14.0567 33.7853 16.9014 33.3336 19.7574 31.5906C19.7591 31.5895 19.7614 31.589 19.7632 31.5878C20.3576 31.1706 20.6777 30.7621 20.8355 30.41C21.0216 29.9945 21.0177 29.6327 20.8852 29.244C20.6205 28.4668 19.6721 27.6679 18.8023 27.4452C17.3958 27.0852 16.5024 27.5798 16.0835 28.1689C15.6647 28.7577 15.6392 29.3361 16.2857 29.8386L15.2103 31.2214C13.8803 30.1871 13.7955 28.3633 14.6567 27.1522C15.3029 26.244 16.4366 25.6217 17.8034 25.5819C17.861 25.5798 17.9186 25.5789 17.9762 25.5791C18.3799 25.5819 18.8003 25.6374 19.236 25.7488C20.6896 26.121 22.0335 27.181 22.5435 28.6785C22.6795 29.0799 22.7392 29.5033 22.7193 29.9267C24.2859 29.1262 25.938 28.4154 27.6208 27.8816C30.4479 26.5897 31.6736 24.3249 31.6258 22.4179C31.5775 20.4966 30.3895 18.8797 27.653 18.6092L27.8259 16.866C31.2633 17.2059 33.3067 19.6642 33.3748 22.3738C33.4143 23.9525 32.8353 25.5953 31.6697 26.9938C33.1764 26.825 34.6738 26.8536 36.1256 27.1463C35.8301 26.5396 35.6868 25.8828 35.7068 25.2303C35.7703 23.1644 37.5274 21.2372 40.2888 21.2078C40.4775 21.206 40.6661 21.2128 40.8542 21.2283L40.7135 22.9744C38.3766 22.787 37.4979 24.0137 37.4587 25.2859C37.4201 26.544 38.2598 27.9523 40.6668 28.1392C43.32 28.1627 45.222 26.7238 46.154 24.5855C47.4018 21.7228 46.81 17.4308 42.8874 13.5054C42.8132 13.4311 42.7395 13.3561 42.6647 13.2828C42.6236 13.6324 42.5339 13.9745 42.3983 14.2994C41.7186 15.9297 40.1265 17.0301 38.4725 17.3375C36.1911 17.7615 34.3203 16.8363 33.4569 15.4245C32.5935 14.0129 32.8202 12.0167 34.3738 10.9657L35.3553 12.4189C34.5197 12.984 34.4853 13.7492 34.951 14.5104C35.4167 15.2719 36.4669 15.9313 38.1531 15.618C39.2131 15.4209 40.3934 14.5558 40.7809 13.6258C40.975 13.1608 41.0125 12.7012 40.8192 12.1755C40.6622 11.7484 40.3329 11.2601 39.7204 10.7458L39.7029 10.7313C37.142 8.80123 34.4212 7.41317 31.6638 6.49779C31.6655 6.50079 31.6681 6.50342 31.6698 6.50651C32.2964 7.65213 32.3429 8.9517 31.9569 10.1013C31.1851 12.4005 28.7628 14.212 25.7664 14.1119C25.115 14.0903 24.4952 14.4044 23.9677 15.0172C23.4402 15.6301 23.0551 16.5278 22.9657 17.4841C22.7871 19.3966 23.6147 21.5046 26.8417 22.5466L26.3021 24.2136C22.4506 22.9701 20.9743 19.9437 21.219 17.323C21.3415 16.0129 21.8477 14.7953 22.6399 13.8749C23.4322 12.9544 24.5595 12.3184 25.8246 12.3603C28.0784 12.4354 29.7924 11.0399 30.2953 9.54185C30.5467 8.79298 30.5142 8.04776 30.1312 7.34763C29.7592 6.66776 29.0222 5.99548 27.7025 5.50488C26.1275 5.23135 24.5316 5.09603 22.933 5.10045ZM32.4221 28.7196C28.4926 29.0393 24.2315 30.9134 20.6771 33.0848C15.429 36.2909 9.90615 35.591 5.98759 32.6836C7.52922 38.2002 12.9918 39.3199 18.6907 37.9247C19.261 37.7104 19.8213 37.3117 20.2992 36.7969C20.9608 36.0837 21.4401 35.159 21.5911 34.3945L23.3108 34.7344C23.0816 35.8953 22.4597 37.0468 21.5852 37.9894C20.7462 38.8936 19.6531 39.6159 18.3889 39.8057C17.7546 41.2185 17.2326 42.5882 17.0207 43.5469C16.6879 45.0525 18.3526 45.6304 19.0979 44.1122C20.8812 40.48 23.3982 37.2469 26.5422 34.459C28.9857 32.8509 31.0802 30.8681 32.4222 28.7196H32.4221Z" fill="#8D3401"/>
</svg>
