<svg width="36" height="36" viewBox="0 0 36 36" fill="none" xmlns="http://www.w3.org/2000/svg">
<circle cx="18" cy="18" r="18" fill="#219EBC"/>
<path d="M21.7928 17.3317C21.7926 16.2136 21.3483 15.1415 20.5577 14.3509C19.7672 13.5603 18.695 13.1161 17.5769 13.1159M24.6828 17.0367C24.6828 16.1509 24.5083 15.2737 24.1693 14.4553C23.8302 13.6369 23.3333 12.8933 22.7069 12.267C22.0805 11.6406 21.3368 11.1438 20.5184 10.8049C19.7 10.466 18.8228 10.2916 17.9369 10.2917M17.4428 24.8475C17.1928 24.7334 16.9436 24.6192 16.6944 24.4834C15.4722 23.7928 14.3494 22.9395 13.3569 21.9467C12.0708 20.7355 11.0142 19.3019 10.2378 17.715C9.82245 16.8626 9.54189 15.9509 9.40611 15.0125C9.22292 14.0643 9.328 13.083 9.70777 12.195C9.94207 11.8133 10.225 11.4637 10.5494 11.155C10.6811 11.0077 10.8412 10.8885 11.02 10.8046C11.1989 10.7207 11.3928 10.6738 11.5903 10.6667C12.0011 10.7284 12.3736 10.9434 12.6303 11.2692C13.1919 11.8934 13.7944 12.455 14.3869 13.0475C14.6203 13.2475 14.7661 13.5309 14.7928 13.8375C14.7828 14.0959 14.6836 14.3417 14.5119 14.5342C14.3144 14.7842 14.0753 15.0125 13.8469 15.2509C13.7089 15.3838 13.6032 15.5468 13.5382 15.7271C13.4732 15.9075 13.4505 16.1004 13.4719 16.2909C13.6153 16.7367 13.8611 17.1434 14.1894 17.4767C14.5834 18.0141 14.9961 18.5375 15.4269 19.0459C16.2305 19.9728 17.1823 20.7599 18.2436 21.375C18.3906 21.486 18.5643 21.556 18.7472 21.578C18.93 21.6 19.1154 21.573 19.2844 21.5C19.6369 21.3025 19.9511 21.0417 20.2094 20.7309C20.4333 20.4586 20.7536 20.2833 21.1036 20.2417C21.4153 20.2584 21.7086 20.3917 21.9253 20.6167C22.2053 20.855 22.4444 21.1359 22.7044 21.3959C22.9644 21.6559 23.1728 21.8434 23.3911 22.0817C23.6528 22.3128 23.8986 22.5589 24.1286 22.82C24.3069 23.0509 24.3928 23.3409 24.3678 23.6309C24.2749 23.9781 24.0749 24.2872 23.7961 24.5142C23.4036 24.9223 22.9267 25.2399 22.3987 25.4447C21.8708 25.6495 21.3045 25.7367 20.7394 25.7C19.5953 25.6365 18.4742 25.3468 17.4428 24.8475Z" stroke="white" stroke-width="1.25" stroke-miterlimit="10" stroke-linecap="round"/>
</svg>
