<svg width="49" height="48" viewBox="0 0 49 48" fill="none" xmlns="http://www.w3.org/2000/svg">
<path d="M45.7756 34.7006C45.2862 34.1794 43.5584 32.6381 40.3821 30.5991C37.1824 28.5422 34.8227 27.2597 34.1459 26.9606C34.0862 26.9342 34.0205 26.9245 33.9557 26.9326C33.891 26.9407 33.8297 26.9662 33.7784 27.0066C32.6881 27.8569 30.8524 29.4188 30.754 29.5031C30.1184 30.0478 30.1184 30.0478 29.5981 29.8781C28.6831 29.5781 25.8406 28.0688 23.3637 25.5863C20.8868 23.1038 19.2996 20.1909 18.9996 19.2769C18.8281 18.7556 18.8281 18.7556 19.3746 18.12C19.459 18.0216 21.0218 16.1859 21.8721 15.0966C21.9124 15.0453 21.938 14.9839 21.9461 14.9192C21.9542 14.8544 21.9445 14.7887 21.9181 14.7291C21.619 14.0513 20.3365 11.6925 18.2796 8.49282C16.2377 5.3175 14.6984 3.58969 14.1771 3.10032C14.1293 3.05518 14.0702 3.02378 14.006 3.00943C13.9418 2.99507 13.8749 2.99829 13.8124 3.01876C11.9904 3.64492 10.2324 4.44387 8.56243 5.40469C6.95033 6.34184 5.42409 7.41946 4.00149 8.62501C3.95183 8.66722 3.9146 8.72216 3.89379 8.78393C3.87298 8.8457 3.86938 8.91197 3.88337 8.97563C4.0793 9.88875 5.01587 13.7006 7.92212 18.9806C10.8874 24.3694 12.9424 27.1303 17.2971 31.47C21.6518 35.8097 24.4999 37.9884 29.8943 40.9538C35.1743 43.86 38.9881 44.7975 39.8993 44.9916C39.9631 45.0054 40.0295 45.0018 40.0914 44.981C40.1533 44.9602 40.2084 44.923 40.2509 44.8734C41.4562 43.4509 42.5335 41.9247 43.4702 40.3125C44.4309 38.6425 45.2298 36.8845 45.8562 35.0625C45.8762 35.0005 45.8793 34.9342 45.8651 34.8706C45.851 34.807 45.82 34.7483 45.7756 34.7006Z" fill="#C75000"/>
</svg>
