<svg width="32" height="32" viewBox="0 0 32 32" fill="none" xmlns="http://www.w3.org/2000/svg">
<path d="M24.9601 19.68C25.4267 18.5467 25.6801 17.3333 25.6801 16C25.6801 15.04 25.5334 14.12 25.2801 13.2667C24.4134 13.4667 23.5067 13.5733 22.5601 13.5733C20.6214 13.5754 18.7106 13.1114 16.9888 12.2203C15.267 11.3292 13.7847 10.0373 12.6667 8.45334C11.472 11.3477 9.2157 13.6755 6.36008 14.96C6.30675 15.2933 6.30675 15.6533 6.30675 16C6.30675 17.273 6.55747 18.5334 7.04461 19.7095C7.53174 20.8855 8.24575 21.9541 9.14586 22.8542C10.9637 24.6721 13.4292 25.6933 16.0001 25.6933C17.4001 25.6933 18.7467 25.3867 19.9601 24.84C20.7201 26.2933 21.0667 27.0133 21.0401 27.0133C18.8534 27.7467 17.1601 28.1067 16.0001 28.1067C12.7734 28.1067 9.69342 26.84 7.42675 24.56C6.04681 23.1866 5.02178 21.498 4.44008 19.64H2.66675V13.5733H4.12008C4.5604 11.43 5.57274 9.44589 7.04967 7.83147C8.5266 6.21704 10.413 5.03255 12.5088 4.40369C14.6045 3.77482 16.8315 3.72504 18.9532 4.25962C21.075 4.7942 23.0125 5.8932 24.5601 7.44001C26.2398 9.11412 27.3858 11.2484 27.8534 13.5733H29.3334V19.64H29.2534L24.5067 24L17.4401 23.2V20.9733H23.8801L24.9601 19.68ZM12.3601 15.6933C12.7601 15.6933 13.1467 15.8533 13.4267 16.1467C13.7081 16.4304 13.866 16.8138 13.866 17.2133C13.866 17.6129 13.7081 17.9963 13.4267 18.28C13.1467 18.56 12.7601 18.72 12.3601 18.72C11.5201 18.72 10.8401 18.0533 10.8401 17.2133C10.8401 16.3733 11.5201 15.6933 12.3601 15.6933ZM19.6267 15.6933C20.4667 15.6933 21.1334 16.3733 21.1334 17.2133C21.1334 18.0533 20.4667 18.72 19.6267 18.72C18.7867 18.72 18.1067 18.0533 18.1067 17.2133C18.1067 16.8102 18.2669 16.4236 18.5519 16.1385C18.837 15.8535 19.2236 15.6933 19.6267 15.6933Z" fill="white"/>
</svg>
