<svg width="32" height="32" viewBox="0 0 32 32" fill="none" xmlns="http://www.w3.org/2000/svg">
<path d="M26.6666 29.3334V25.3334C26.6666 21.5627 26.6666 19.676 25.4946 18.5054C24.3239 17.3334 22.4373 17.3334 18.6666 17.3334L15.9999 20L13.3333 17.3334C9.56259 17.3334 7.67592 17.3334 6.50525 18.5054C5.33325 19.676 5.33325 21.5627 5.33325 25.3334V29.3334M21.3333 17.3334V24.6667" stroke="white" stroke-width="2" stroke-linecap="round" stroke-linejoin="round"/>
<path d="M11.3332 17.3334V22.6667M11.3332 22.6667C12.0404 22.6667 12.7187 22.9476 13.2188 23.4477C13.7189 23.9478 13.9998 24.6261 13.9998 25.3334V26.6667M11.3332 22.6667C10.6259 22.6667 9.94765 22.9476 9.44755 23.4477C8.94746 23.9478 8.6665 24.6261 8.6665 25.3334V26.6667M20.6665 8.66669V7.33335C20.6665 6.72052 20.5458 6.11368 20.3113 5.5475C20.0768 4.98131 19.733 4.46686 19.2997 4.03352C18.8663 3.60018 18.3519 3.25644 17.7857 3.02192C17.2195 2.78739 16.6127 2.66669 15.9998 2.66669C15.387 2.66669 14.7802 2.78739 14.214 3.02192C13.6478 3.25644 13.1333 3.60018 12.7 4.03352C12.2667 4.46686 11.9229 4.98131 11.6884 5.5475C11.4539 6.11368 11.3332 6.72052 11.3332 7.33335V8.66669C11.3332 9.27952 11.4539 9.88636 11.6884 10.4525C11.9229 11.0187 12.2667 11.5332 12.7 11.9665C13.1333 12.3999 13.6478 12.7436 14.214 12.9781C14.7802 13.2126 15.387 13.3334 15.9998 13.3334C16.6127 13.3334 17.2195 13.2126 17.7857 12.9781C18.3519 12.7436 18.8663 12.3999 19.2997 11.9665C19.733 11.5332 20.0768 11.0187 20.3113 10.4525C20.5458 9.88636 20.6665 9.27952 20.6665 8.66669ZM22.3332 25.6667C22.3332 25.9319 22.2278 26.1863 22.0403 26.3738C21.8527 26.5613 21.5984 26.6667 21.3332 26.6667C21.068 26.6667 20.8136 26.5613 20.6261 26.3738C20.4385 26.1863 20.3332 25.9319 20.3332 25.6667C20.3332 25.4015 20.4385 25.1471 20.6261 24.9596C20.8136 24.772 21.068 24.6667 21.3332 24.6667C21.5984 24.6667 21.8527 24.772 22.0403 24.9596C22.2278 25.1471 22.3332 25.4015 22.3332 25.6667Z" stroke="white" stroke-width="2" stroke-linecap="round" stroke-linejoin="round"/>
</svg>
