<svg width="49" height="48" viewBox="0 0 49 48" fill="none" xmlns="http://www.w3.org/2000/svg">
<path fill-rule="evenodd" clip-rule="evenodd" d="M34.5005 13.8099C34.5005 17.2709 33.6405 21.7849 32.3175 21.0999C31.7766 22.8666 30.6408 24.3917 29.1031 25.416C27.5653 26.4404 25.7205 26.901 23.8817 26.7196C22.043 26.5382 20.3236 25.726 19.0157 24.4209C17.7078 23.1158 16.8919 21.3983 16.7066 19.5599C15.3936 17.2629 13.6715 12.6599 18.0985 9.07192C18.1785 9.04592 18.2266 8.82992 18.2986 8.51192C18.5726 7.30892 19.1795 4.63492 23.0085 5.14592C25.9615 5.53892 34.5005 7.06292 34.5005 13.8099ZM30.6946 15.9929C30.6946 15.9929 30.2426 17.3149 30.6666 18.7879C30.661 20.3585 30.0399 21.8643 28.9365 22.982C27.8332 24.0998 26.3355 24.7403 24.7651 24.7661C23.1947 24.7919 21.6768 24.2009 20.5374 23.12C19.3979 22.0391 18.7276 20.5545 18.6706 18.9849C18.8156 18.4349 18.8156 17.5039 18.8146 16.4689C18.8136 14.6019 18.8116 12.3989 19.6666 11.5009C25.6556 15.4899 30.6946 15.9929 30.6946 15.9929Z" fill="#8D3401"/>
<path d="M13.6665 36C13.6665 34.918 14.2395 33.97 15.0995 33.442C15.0668 33.3175 15.0362 33.1924 15.0075 33.067C14.8563 32.3837 14.7379 31.6935 14.6525 30.999C14.5672 30.3333 14.5155 29.6638 14.4975 28.993C10.2765 30.65 6.6665 33.538 6.6665 36.57V42H42.6665V36.57C42.6665 33.666 39.3565 30.895 35.3685 29.21V29.238C35.3865 29.848 35.3525 30.548 35.2865 31.221C35.2265 31.845 35.1375 32.467 35.0305 33H35.6665C35.8522 33.0001 36.0341 33.0518 36.192 33.1495C36.3499 33.2472 36.4775 33.3869 36.5605 33.553L37.5605 35.553C37.6305 35.692 37.6665 35.845 37.6665 36V38C37.6665 38.2652 37.5611 38.5195 37.3736 38.7071C37.1861 38.8946 36.9317 39 36.6665 39H34.6665V37H35.6665V36.236L35.0485 35H32.2845L31.6665 36.236V37H32.6665V39H30.6665C30.4013 39 30.1469 38.8946 29.9594 38.7071C29.7719 38.5195 29.6665 38.2652 29.6665 38V36C29.6665 35.845 29.7025 35.692 29.7725 35.553L30.7725 33.553C30.8555 33.3869 30.9831 33.2472 31.141 33.1495C31.2989 33.0518 31.4808 33.0001 31.6665 33H32.9815C33.0035 32.914 33.0255 32.8186 33.0475 32.714C33.1475 32.243 33.2365 31.646 33.2965 31.029C33.3565 30.411 33.3845 29.798 33.3695 29.294C33.3662 29.0851 33.3499 28.8767 33.3205 28.67C33.2985 28.528 33.2765 28.463 33.2725 28.449C33.2712 28.4456 33.2712 28.445 33.2725 28.447L33.2755 28.446C32.7448 28.2814 32.2081 28.1369 31.6665 28.013C31.1635 27.898 30.6435 28.59 30.4165 29.023H18.6665L18.5805 28.855C18.3685 28.433 18.1075 27.912 17.6665 28.013C17.2812 28.1003 16.8962 28.1993 16.5115 28.31C16.4996 28.4854 16.4942 28.6612 16.4955 28.837C16.4995 29.39 16.5525 30.067 16.6375 30.751C16.7225 31.433 16.8375 32.097 16.9575 32.621C16.9922 32.7723 17.0255 32.907 17.0575 33.025C17.6292 33.1001 18.1672 33.3384 18.6069 33.7114C19.0467 34.0844 19.3697 34.5762 19.5372 35.128C19.7046 35.6797 19.7096 36.2681 19.5513 36.8226C19.3931 37.3771 19.0784 37.8742 18.645 38.2545C18.2115 38.6348 17.6777 38.8821 17.1073 38.9668C16.5369 39.0515 15.9542 38.9701 15.4289 38.7322C14.9036 38.4943 14.458 38.1101 14.1455 37.6255C13.8329 37.141 13.6666 36.5766 13.6665 36Z" fill="#8D3401"/>
<path d="M17.6665 35.9999C17.6665 36.5739 17.2045 37.0149 16.6665 37.0149C16.1285 37.0149 15.6665 36.5749 15.6665 35.9999C15.6665 35.4259 16.1285 34.9849 16.6665 34.9849C17.2045 34.9849 17.6665 35.4249 17.6665 35.9999Z" fill="#8D3401"/>
</svg>
