<svg width="20" height="20" viewBox="0 0 20 20" fill="none" xmlns="http://www.w3.org/2000/svg">
<path d="M9.20633 2.8725C8.88133 2.22292 8.20217 1.6975 7.368 1.79042C6.62175 1.87333 5.51383 2.15083 4.75842 3.06083C3.983 3.99542 3.69383 5.45292 4.28925 7.63667C4.92508 9.96625 5.86925 12.2629 7.043 14.1158C8.208 15.9554 9.643 17.4279 11.2892 17.9925C12.7451 18.4917 13.8584 18.2833 14.6705 17.735C15.4538 17.2063 15.8838 16.4108 16.1063 15.86C16.3555 15.2433 16.1913 14.6013 15.8663 14.1279L14.6676 12.3846C14.4028 11.9994 14.0215 11.7091 13.5797 11.5564C13.1379 11.4036 12.6588 11.3964 12.2126 11.5358L10.5559 12.0538C10.5036 12.0716 10.4472 12.0737 10.3936 12.0598C10.3401 12.046 10.2918 12.0168 10.2547 11.9758C9.51717 11.1121 8.69092 9.9075 8.46633 8.68833C8.45915 8.65578 8.46403 8.62172 8.48008 8.5925C8.72383 8.18292 9.14341 7.71875 9.5605 7.3125C10.2676 6.62417 10.5355 5.53 10.0688 4.5975L9.20633 2.8725Z" fill="white"/>
</svg>
