<svg width="525" height="308" viewBox="0 0 525 308" fill="none" xmlns="http://www.w3.org/2000/svg">
<g filter="url(#filter0_d_250_14674)">
<path d="M156.751 307.082L155.307 307.738H103.319V264.319V264.45L110.54 270.221L111.984 271.271L114.478 273.37L115.66 274.157L116.973 275.337L118.286 276.387L121.174 278.748L122.224 279.404L156.751 307.082Z" fill="#FB973B"/>
<path d="M471.436 176.562V307.738H417.873V199.387L471.436 176.562Z" fill="#FB973B"/>
<path d="M264.404 307.738H0L103.32 264.45L261.909 197.944L263.353 262.089V262.22L263.485 268.516L263.616 272.976V276.78L263.747 279.273V279.666L264.404 307.738Z" fill="#FB973B"/>
<path d="M316.786 239.395V307.738H263.222V262.22L263.353 262.089L316.786 239.395Z" fill="#C75000"/>
<path d="M471.437 110.974L525 88.1499V153.738L471.437 176.562V110.974Z" fill="#FB973B"/>
<path d="M430.739 142.85L461.066 166.986L430.739 179.842V142.85Z" fill="#C75000"/>
<path d="M441.11 0L471.437 24.1363L441.11 36.9915V0Z" fill="#C75000"/>
<path d="M292.104 185.22L322.3 209.356L292.104 222.211V185.22Z" fill="#C75000"/>
<path d="M261.909 161.083L292.104 185.089L261.909 198.075V161.083Z" fill="#C75000"/>
<path d="M471.437 176.693L525 153.869V219.325L471.437 242.15V176.693Z" fill="#C75000"/>
<path d="M364.31 156.755L417.873 133.93V199.387L364.31 222.211V156.755Z" fill="#FB973B"/>
<path d="M263.485 262.22V307.738H209.921V285.044L218.192 281.503L221.999 279.797L232.633 275.337L235.128 274.288L236.966 273.501L238.147 272.976L239.066 272.583L241.561 271.533L263.222 262.351L263.354 262.22H263.485Z" fill="#FB973B"/>
<path d="M209.921 285.044V307.738H156.621L209.921 285.044Z" fill="#FB973B"/>
<path d="M474.85 242.412V308H314.16L314.685 307.738L316.786 306.951L417.874 265.63L471.437 243.855L474.85 242.412Z" fill="#FB973B"/>
<path d="M417.873 68.2113L471.436 45.3867V110.974L417.873 68.2113Z" fill="#FB973B"/>
<path d="M471.437 176.693L525 153.869V219.325L471.437 176.693Z" fill="#FB973B"/>
<path d="M471.437 45.3867L525 22.6934V88.1499L471.437 45.3867Z" fill="#C75000"/>
<path d="M525 219.325V307.738H471.437V242.15L492.31 233.361L525 219.325Z" fill="#C75000"/>
<path d="M492.18 233.361L525 219.325V259.334L492.18 233.361Z" fill="#FB973B"/>
<path d="M474.85 307.738V308H314.16L314.685 307.738H474.85Z" fill="#B5F1F5"/>
</g>
<defs>
<filter id="filter0_d_250_14674" x="-30" y="-26" width="585" height="368" filterUnits="userSpaceOnUse" color-interpolation-filters="sRGB">
<feFlood flood-opacity="0" result="BackgroundImageFix"/>
<feColorMatrix in="SourceAlpha" type="matrix" values="0 0 0 0 0 0 0 0 0 0 0 0 0 0 0 0 0 0 127 0" result="hardAlpha"/>
<feOffset dy="4"/>
<feGaussianBlur stdDeviation="15"/>
<feComposite in2="hardAlpha" operator="out"/>
<feColorMatrix type="matrix" values="0 0 0 0 0 0 0 0 0 0 0 0 0 0 0 0 0 0 0.1 0"/>
<feBlend mode="normal" in2="BackgroundImageFix" result="effect1_dropShadow_250_14674"/>
<feBlend mode="normal" in="SourceGraphic" in2="effect1_dropShadow_250_14674" result="shape"/>
</filter>
</defs>
</svg>
