<svg width="48" height="48" viewBox="0 0 48 48" fill="none" xmlns="http://www.w3.org/2000/svg">
<path d="M39 3.75H31.5C30.9032 3.75 30.3309 3.98705 29.909 4.40901C29.487 4.83097 29.25 5.40326 29.25 6C29.25 6.59674 29.487 7.16903 29.909 7.59099C30.3309 8.01295 30.9032 8.25 31.5 8.25H33.5625L30.63 11.1881C29.1284 9.94032 27.3603 9.05403 25.462 8.59758C23.5637 8.14114 21.586 8.12674 19.6813 8.55549C17.7765 8.98424 15.9957 9.84468 14.4761 11.0705C12.9565 12.2963 11.7387 13.8547 10.9166 15.6256C10.0945 17.3964 9.69009 19.3324 9.7345 21.2843C9.77892 23.2362 10.271 25.1518 11.1728 26.8834C12.0746 28.6151 13.362 30.1165 14.9358 31.2719C16.5096 32.4273 18.3277 33.2058 20.25 33.5475V36H16.5C15.9032 36 15.3309 36.2371 14.909 36.659C14.487 37.081 14.25 37.6533 14.25 38.25C14.25 38.8467 14.487 39.419 14.909 39.841C15.3309 40.2629 15.9032 40.5 16.5 40.5H20.25V43.5C20.25 44.0967 20.487 44.669 20.909 45.091C21.3309 45.5129 21.9032 45.75 22.5 45.75C23.0967 45.75 23.669 45.5129 24.091 45.091C24.5129 44.669 24.75 44.0967 24.75 43.5V40.5H28.5C29.0967 40.5 29.669 40.2629 30.091 39.841C30.5129 39.419 30.75 38.8467 30.75 38.25C30.75 37.6533 30.5129 37.081 30.091 36.659C29.669 36.2371 29.0967 36 28.5 36H24.75V33.5475C26.7636 33.1883 28.6612 32.3494 30.2821 31.1018C31.903 29.8542 33.1996 28.2345 34.0622 26.3799C34.9248 24.5252 35.328 22.49 35.2378 20.4466C35.1475 18.4031 34.5665 16.4114 33.5437 14.64L36.75 11.4375V13.5C36.75 14.0967 36.987 14.669 37.409 15.091C37.8309 15.5129 38.4032 15.75 39 15.75C39.5967 15.75 40.169 15.5129 40.591 15.091C41.0129 14.669 41.25 14.0967 41.25 13.5V6C41.25 5.40326 41.0129 4.83097 40.591 4.40901C40.169 3.98705 39.5967 3.75 39 3.75ZM22.5 29.25C20.8683 29.25 19.2732 28.7661 17.9165 27.8596C16.5598 26.9531 15.5024 25.6646 14.878 24.1571C14.2535 22.6496 14.0902 20.9908 14.4085 19.3905C14.7268 17.7902 15.5126 16.3202 16.6663 15.1664C17.8201 14.0126 19.2901 13.2269 20.8905 12.9085C22.4908 12.5902 24.1496 12.7536 25.6571 13.378C27.1646 14.0024 28.4531 15.0598 29.3596 16.4165C30.2661 17.7733 30.75 19.3683 30.75 21C30.7475 23.1873 29.8775 25.2843 28.3309 26.8309C26.7842 28.3775 24.6872 29.2475 22.5 29.25Z" fill="#8D3401"/>
</svg>
