<svg width="48" height="48" viewBox="0 0 48 48" fill="none" xmlns="http://www.w3.org/2000/svg">
<path fill-rule="evenodd" clip-rule="evenodd" d="M38.815 6L29.689 15.126L32.311 16.874L36.793 12.393C36.9816 12.2108 37.2342 12.11 37.4964 12.1123C37.7586 12.1146 38.0094 12.2198 38.1948 12.4052C38.3802 12.5906 38.4854 12.8414 38.4877 13.1036C38.49 13.3658 38.3892 13.6184 38.207 13.807L32.707 19.307L32.7 19.3L30.586 21.414C30.2109 21.789 30.0001 22.2976 30 22.828V23.284C30.0002 23.5503 29.9473 23.814 29.8442 24.0595C29.7412 24.3051 29.5902 24.5276 29.4 24.714L25.75 28.287C24.6283 29.3853 23.1209 30.0003 21.551 30H12L27.7 14.3L27.693 14.293L35.986 6H9C8.20435 6 7.44129 6.31607 6.87868 6.87868C6.31607 7.44129 6 8.20435 6 9V39C6 39.7957 6.31607 40.5587 6.87868 41.1213C7.44129 41.6839 8.20435 42 9 42H39C39.7957 42 40.5587 41.6839 41.1213 41.1213C41.6839 40.5587 42 39.7957 42 39V9C42 8.20435 41.6839 7.44129 41.1213 6.87868C40.5587 6.31607 39.7957 6 39 6H38.815ZM16.828 28H21.552C22.5981 27.9999 23.6026 27.5899 24.35 26.858L28 23.284V22.828C28.0002 21.7672 28.4218 20.75 29.172 20L30.861 18.31L28.255 16.574L16.828 28ZM20 34H10V36H20V34ZM28 34V36H32V34H28ZM22 34H26V36H22V34ZM38 34H34V36H38V34ZM26.707 22.707C26.8892 22.5184 26.99 22.2658 26.9877 22.0036C26.9854 21.7414 26.8802 21.4906 26.6948 21.3052C26.5094 21.1198 26.2586 21.0146 25.9964 21.0123C25.7342 21.01 25.4816 21.1108 25.293 21.293L22.293 24.293C22.1108 24.4816 22.01 24.7342 22.0123 24.9964C22.0146 25.2586 22.1198 25.5094 22.3052 25.6948C22.4906 25.8802 22.7414 25.9854 23.0036 25.9877C23.2658 25.99 23.5184 25.8892 23.707 25.707L26.707 22.707Z" fill="#8D3401"/>
</svg>
