<svg width="49" height="48" viewBox="0 0 49 48" fill="none" xmlns="http://www.w3.org/2000/svg">
<path fill-rule="evenodd" clip-rule="evenodd" d="M10.625 4C9.56413 4 8.54672 4.42143 7.79657 5.17157C7.04643 5.92172 6.625 6.93913 6.625 8V41.8C6.625 42.0889 6.6819 42.375 6.79247 42.6419C6.90303 42.9088 7.06508 43.1513 7.26937 43.3556C7.47365 43.5599 7.71618 43.722 7.9831 43.8325C8.25001 43.9431 8.53609 44 8.825 44H40.425C40.7139 44 41 43.9431 41.2669 43.8325C41.5338 43.722 41.7763 43.5599 41.9806 43.3556C42.1849 43.1513 42.347 42.9088 42.4575 42.6419C42.5681 42.375 42.625 42.0889 42.625 41.8V22C42.625 20.9391 42.2036 19.9217 41.4534 19.1716C40.7033 18.4214 39.6859 18 38.625 18H37.625C37.3598 18 37.1054 18.1054 36.9179 18.2929C36.7304 18.4804 36.625 18.7348 36.625 19V40H34.625V8C34.625 6.93913 34.2036 5.92172 33.4534 5.17157C32.7033 4.42143 31.6859 4 30.625 4H10.625ZM20.625 10C20.0946 10 19.5859 10.2107 19.2108 10.5858C18.8357 10.9609 18.625 11.4696 18.625 12V14H16.625C16.0946 14 15.5859 14.2107 15.2108 14.5858C14.8357 14.9609 14.625 15.4696 14.625 16C14.625 16.5304 14.8357 17.0391 15.2108 17.4142C15.5859 17.7893 16.0946 18 16.625 18H18.625V20C18.625 20.5304 18.8357 21.0391 19.2108 21.4142C19.5859 21.7893 20.0946 22 20.625 22C21.1554 22 21.6641 21.7893 22.0392 21.4142C22.4143 21.0391 22.625 20.5304 22.625 20V18H24.625C25.1554 18 25.6641 17.7893 26.0392 17.4142C26.4143 17.0391 26.625 16.5304 26.625 16C26.625 15.4696 26.4143 14.9609 26.0392 14.5858C25.6641 14.2107 25.1554 14 24.625 14H22.625V12C22.625 11.4696 22.4143 10.9609 22.0392 10.5858C21.6641 10.2107 21.1554 10 20.625 10ZM20.625 28C19.5641 28 18.5467 28.4214 17.7966 29.1716C17.0464 29.9217 16.625 30.9391 16.625 32V40H24.625V32C24.625 30.9391 24.2036 29.9217 23.4534 29.1716C22.7033 28.4214 21.6859 28 20.625 28Z" fill="#C75000"/>
</svg>
