<svg width="20" height="20" viewBox="0 0 20 20" fill="none" xmlns="http://www.w3.org/2000/svg">
<path d="M9.99992 1.66667C6.49992 1.66667 3.33325 4.35 3.33325 8.5C3.33325 11.15 5.37492 14.2667 9.44992 17.8583C9.76659 18.1333 10.2416 18.1333 10.5583 17.8583C14.6249 14.2667 16.6666 11.15 16.6666 8.5C16.6666 4.35 13.4999 1.66667 9.99992 1.66667ZM9.99992 10C9.08325 10 8.33325 9.25 8.33325 8.33333C8.33325 7.41667 9.08325 6.66667 9.99992 6.66667C10.9166 6.66667 11.6666 7.41667 11.6666 8.33333C11.6666 9.25 10.9166 10 9.99992 10Z" fill="white"/>
</svg>
