<svg width="49" height="48" viewBox="0 0 49 48" fill="none" xmlns="http://www.w3.org/2000/svg">
<g clip-path="url(#clip0_2_981)">
<path fill-rule="evenodd" clip-rule="evenodd" d="M15.7618 3.42857C15.7618 2.51926 16.123 1.64719 16.766 1.00421C17.4089 0.361224 18.281 0 19.1903 0L29.476 0C30.3854 0 31.2574 0.361224 31.9004 1.00421C32.5434 1.64719 32.9046 2.51926 32.9046 3.42857V5.14286C32.9046 6.05217 32.5434 6.92424 31.9004 7.56722C31.2574 8.21021 30.3854 8.57143 29.476 8.57143H19.1903C18.281 8.57143 17.4089 8.21021 16.766 7.56722C16.123 6.92424 15.7618 6.05217 15.7618 5.14286V3.42857ZM37.1903 3.42857H38.9046C40.2686 3.42857 41.5767 3.97041 42.5412 4.93488C43.5056 5.89935 44.0475 7.20746 44.0475 8.57143V42.8571C44.0475 44.2211 43.5056 45.5292 42.5412 46.4937C41.5767 47.4582 40.2686 48 38.9046 48H9.76175C8.39778 48 7.08968 47.4582 6.1252 46.4937C5.16073 45.5292 4.6189 44.2211 4.6189 42.8571V8.57143C4.6189 7.20746 5.16073 5.89935 6.1252 4.93488C7.08968 3.97041 8.39778 3.42857 9.76175 3.42857H11.476V5.14286C11.476 7.18881 12.2888 9.15097 13.7355 10.5977C15.1822 12.0444 17.1444 12.8571 19.1903 12.8571H29.476C31.522 12.8571 33.4842 12.0444 34.9309 10.5977C36.3776 9.15097 37.1903 7.18881 37.1903 5.14286V3.42857ZM20.8018 20.3931C20.8018 19.6491 21.4052 19.0491 22.1492 19.0491H26.5206C27.2612 19.0491 27.8646 19.6491 27.8646 20.3931V25.7417H33.2132C33.9572 25.7417 34.5572 26.3451 34.5572 27.0891V31.4606C34.5581 31.6373 34.524 31.8125 34.4567 31.976C34.3895 32.1394 34.2905 32.288 34.1656 32.4129C34.0406 32.5379 33.8921 32.6369 33.7286 32.7041C33.5651 32.7713 33.3899 32.8055 33.2132 32.8046H27.8646V38.1531C27.866 38.3302 27.8322 38.5057 27.7652 38.6696C27.6981 38.8335 27.5992 38.9824 27.4742 39.1077C27.3492 39.2331 27.2005 39.3324 27.0368 39.3998C26.8731 39.4672 26.6977 39.5015 26.5206 39.5006H22.1458C21.9687 39.5015 21.7933 39.4672 21.6296 39.3998C21.4659 39.3324 21.3172 39.2331 21.1922 39.1077C21.0671 38.9824 20.9682 38.8335 20.9012 38.6696C20.8342 38.5057 20.8004 38.3302 20.8018 38.1531V32.8046H15.4532C15.2764 32.8055 15.1013 32.7713 14.9378 32.7041C14.7743 32.6369 14.6258 32.5379 14.5008 32.4129C14.3758 32.288 14.2769 32.1394 14.2096 31.976C14.1424 31.8125 14.1083 31.6373 14.1092 31.4606V27.0857C14.1092 26.3417 14.7092 25.7383 15.4532 25.7383H20.8018V20.3931Z" fill="#8D3401"/>
</g>
<defs>
<clipPath id="clip0_2_981">
<rect width="48" height="48" fill="white" transform="translate(0.333252)"/>
</clipPath>
</defs>
</svg>
