<svg width="36" height="36" viewBox="0 0 36 36" fill="none" xmlns="http://www.w3.org/2000/svg">
<circle cx="18" cy="18" r="18" fill="#219EBC"/>
<g clip-path="url(#clip0_1211_4982)">
<path d="M27.7153 26.5714H9.14383C7.95812 26.5714 7.00098 25.6143 7.00098 24.4286V11.5714C7.00098 10.3857 7.95812 9.42859 9.14383 9.42859H27.7153C28.901 9.42859 29.8581 10.3857 29.8581 11.5714V24.4286C29.8581 25.6143 28.901 26.5714 27.7153 26.5714ZM9.14383 10.8572C8.74383 10.8572 8.42955 11.1714 8.42955 11.5714V24.4286C8.42955 24.8286 8.74383 25.1429 9.14383 25.1429H27.7153C28.1153 25.1429 28.4295 24.8286 28.4295 24.4286V11.5714C28.4295 11.1714 28.1153 10.8572 27.7153 10.8572H9.14383Z" fill="white"/>
<path d="M18.4297 20.8C17.4297 20.8 16.5154 20.4 15.8297 19.6715L8.32972 11.7C8.05829 11.4143 8.07257 10.9572 8.35829 10.6857C8.644 10.4143 9.10115 10.4286 9.37257 10.7143L16.8726 18.6857C17.6869 19.5572 19.1726 19.5572 19.9869 18.6857L27.4869 10.7286C27.7583 10.4429 28.2154 10.4286 28.5011 10.7C28.7869 10.9714 28.8011 11.4286 28.5297 11.7143L21.0297 19.6857C20.344 20.4143 19.4297 20.8143 18.4297 20.8143V20.8Z" fill="white"/>
</g>
<defs>
<clipPath id="clip0_1211_4982">
<rect width="22.86" height="20" fill="white" transform="translate(7 8)"/>
</clipPath>
</defs>
</svg>
