<svg width="49" height="48" viewBox="0 0 49 48" fill="none" xmlns="http://www.w3.org/2000/svg">
<path d="M24.6664 4C27.9864 4 30.6664 6.68 30.6664 10C30.6664 13.32 27.9864 16 24.6664 16C21.3464 16 18.6664 13.32 18.6664 10C18.6664 6.68 21.3464 4 24.6664 4ZM40.6664 36L36.6664 25.12C35.9664 23.14 35.3464 21.42 32.6664 20C29.9264 18.6 27.9264 18 24.6664 18C21.4464 18 19.4464 18.6 16.6664 20C14.0264 21.42 13.4064 23.14 12.6664 25.12L8.66639 36C8.20639 38.26 13.4264 40.88 16.9264 42.38C19.3464 43.44 21.9464 44 24.6664 44C27.4264 44 30.0064 43.44 32.4464 42.38C35.9464 40.88 41.1664 38.26 40.6664 36ZM31.5064 35L24.6664 42L17.8264 35C17.1064 34.24 16.6664 33.22 16.6664 32.1C16.6664 29.84 18.4664 28 20.6664 28C21.7664 28 22.7864 28.46 23.5064 29.22L24.6664 30.4L25.8264 29.2C26.5464 28.46 27.5664 28 28.6664 28C30.8864 28 32.6664 29.84 32.6664 32.1C32.6664 33.22 32.2264 34.26 31.5064 35Z" fill="#8D3401"/>
</svg>
