<svg width="49" height="49" viewBox="0 0 49 49" fill="none" xmlns="http://www.w3.org/2000/svg">
<path d="M24.5 4.5C34.656 4.5 43.044 12.07 44.33 21.874C41.252 19.4741 37.4029 18.2821 33.5072 18.5223C29.6116 18.7625 25.9381 20.4184 23.1783 23.1783C20.4184 25.9381 18.7625 29.6116 18.5223 33.5072C18.2821 37.4029 19.4741 41.252 21.874 44.33C12.07 43.044 4.5 34.656 4.5 24.5C4.5 13.454 13.454 4.5 24.5 4.5ZM24.5 8.166C19.866 8.166 15.68 10.098 12.708 13.198C13.062 13.444 13.37 13.79 13.582 14.266C13.99 15.18 13.99 16.122 13.99 16.956C13.99 17.612 13.99 18.236 14.2 18.686C14.488 19.302 15.732 19.566 16.83 19.794L16.87 19.804C17.25 19.884 17.64 19.964 17.996 20.064C19.008 20.344 19.792 21.254 20.418 21.984C20.678 22.286 21.064 22.732 21.258 22.844C21.358 22.772 21.68 22.422 21.838 21.848C21.962 21.408 21.926 21.02 21.748 20.808C20.628 19.488 20.69 16.948 21.036 16.01C21.58 14.532 23.28 14.642 24.524 14.722H24.536C24.996 14.752 25.428 14.782 25.752 14.74C26.694 14.62 27.142 13.508 27.422 12.812C27.512 12.59 27.584 12.41 27.65 12.32C28.234 11.52 30.022 10.314 31.13 9.57C29.0437 8.6398 26.7843 8.16134 24.5 8.166ZM46.5 34.5C46.5 36.0759 46.1896 37.6363 45.5866 39.0922C44.9835 40.5481 44.0996 41.871 42.9853 42.9853C41.871 44.0996 40.5481 44.9835 39.0922 45.5866C37.6363 46.1896 36.0759 46.5 34.5 46.5C32.9241 46.5 31.3637 46.1896 29.9078 45.5866C28.4519 44.9835 27.129 44.0996 26.0147 42.9853C24.9004 41.871 24.0165 40.5481 23.4134 39.0922C22.8104 37.6363 22.5 36.0759 22.5 34.5C22.5 31.3174 23.7643 28.2652 26.0147 26.0147C28.2652 23.7643 31.3174 22.5 34.5 22.5C37.6826 22.5 40.7348 23.7643 42.9853 26.0147C45.2357 28.2652 46.5 31.3174 46.5 34.5ZM32.5 36.5H40.5V32.5H36.5V28.5H32.5V36.5Z" fill="#C75000"/>
</svg>
