<svg width="36" height="36" viewBox="0 0 36 36" fill="none" xmlns="http://www.w3.org/2000/svg">
<circle cx="18" cy="18" r="18" fill="#219EBC"/>
<path d="M22.0003 20.5H20.3337V22.1667H22.0003M22.0003 17.1667H20.3337V18.8333H22.0003M23.667 23.8333H17.0003V22.1667H18.667V20.5H17.0003V18.8333H18.667V17.1667H17.0003V15.5H23.667M15.3337 13.8333H13.667V12.1667H15.3337M15.3337 17.1667H13.667V15.5H15.3337M15.3337 20.5H13.667V18.8333H15.3337M15.3337 23.8333H13.667V22.1667H15.3337M12.0003 13.8333H10.3337V12.1667H12.0003M12.0003 17.1667H10.3337V15.5H12.0003M12.0003 20.5H10.3337V18.8333H12.0003M12.0003 23.8333H10.3337V22.1667H12.0003M17.0003 13.8333V10.5H8.66699V25.5H25.3337V13.8333H17.0003Z" fill="white"/>
</svg>
